<svg id="Layer_1" data-name="Layer 1"
    xmlns="http://www.w3.org/2000/svg" viewBox="0 0 594.83 280.72">
    <g id="Group_7" data-name="Group 7">
        <path id="Path_6" data-name="Path 6" d="M568.26,424.88c2.53,20.15,32.18,29.08,67.07,42.05,39.38,14.65,85.43,34.46,106.63,81.4q7.5,16.59,15.53,30.45c37.42,64.77,83,86.56,133.13,85.82,57.25-.84,103.57-25.36,101-59.82s-18.38-56.45-47.38-56.45-70.49,8.53-70.49,56.45.72,80.64,51.47,92.05,119.06-4.13,197.58-32.23" transform="translate(-565.76 -422.38)" style="fill:none;stroke:#000;stroke-linecap:round;stroke-width:5px;stroke-dasharray:27"/>
        <path id="Path_6" data-name="Path 6" d="M568.26,424.88c2.53,20.15,32.18,29.08,67.07,42.05,39.38,14.65,85.43,34.46,106.63,81.4q7.5,16.59,15.53,30.45c37.42,64.77,83,86.56,133.13,85.82,57.25-.84,103.57-25.36,101-59.82s-18.38-56.45-47.38-56.45-70.49,8.53-70.49,56.45.72,80.64,51.47,92.05,119.06-4.13,197.58-32.23" transform="translate(-565.76 -422.38)" style="fill:none;stroke:white;stroke-linecap:round;stroke-width:5px;stroke-dasharray:27"/>
        <polyline points="553.03 222.88 572.68 223.09 592.33 223.31 582.32 240.22 572.3 257.13" style="fill:none;stroke:#000;stroke-linecap:round;stroke-linejoin:round;stroke-width:5.000000029339377px"/>
    </g>
</svg>