<svg id="Layer_1" data-name="Layer 1" xmlns="http://www.w3.org/2000/svg" viewBox="0 0 1542 601.42"><defs><style>.cls-1,.cls-2,.cls-6{fill:none;stroke:#000;stroke-width:4px;}.cls-1,.cls-6{stroke-linecap:round;}.cls-1,.cls-2{stroke-miterlimit:10;}.cls-3{font-size:45px;font-family:Mont-ExtraLightDEMO, Mont;font-weight:200;}.cls-4{letter-spacing:-0.01em;}.cls-5{letter-spacing:-0.03em;}</style></defs><path class="cls-1" d="M1047.74,209.18h383.09A21.85,21.85,0,0,1,1452.68,231V422.46" transform="translate(-184.68 -207.18)"/><path class="cls-1" d="M902.6,464.54V231a21.85,21.85,0,0,1,21.85-21.85h66.88" transform="translate(-184.68 -207.18)"/><path class="cls-1" d="M1452.68,456.44V607.51a21.86,21.86,0,0,1-21.85,21.85H924.45a21.85,21.85,0,0,1-21.85-21.85V496.87" transform="translate(-184.68 -207.18)"/><path class="cls-1" d="M1248.43,610.14H928.91a5.76,5.76,0,0,1-5.76-5.77V236.81a5.76,5.76,0,0,1,5.76-5.76h497.46a5.76,5.76,0,0,1,5.76,5.76v47.26" transform="translate(-184.68 -207.18)"/><path class="cls-1" d="M1432.13,321.65V604.37a5.76,5.76,0,0,1-5.76,5.77H1273" transform="translate(-184.68 -207.18)"/><path class="cls-1" d="M1087.71,631.36s-1.2,51-62.18,96.09" transform="translate(-184.68 -207.18)"/><path class="cls-1" d="M1243.64,631.94s1.21,51,62.18,96.1" transform="translate(-184.68 -207.18)"/><rect class="cls-2" x="824.63" y="296.92" width="338" height="63.62" rx="2.67"/><text class="cls-3" transform="translate(923.22 344.29)">BE<tspan class="cls-4" x="53.37" y="0">S</tspan><tspan x="79.15" y="0">TE</tspan><tspan class="cls-5" x="127.53" y="0">L</tspan></text><line id="Line_1" data-name="Line 1" class="cls-6" x1="183" y1="521.42" x2="1540" y2="521.42"/><line id="Line_2" data-name="Line 2" class="cls-6" x1="2" y1="521.42" x2="135" y2="521.42"/><line id="Line_3" data-name="Line 3" class="cls-6" x1="853" y1="560.42" x2="1202" y2="560.42"/><line id="Line_5" data-name="Line 5" class="cls-6" x1="1329" y1="599.42" x2="1412" y2="599.42"/><line id="Line_4" data-name="Line 4" class="cls-6" x1="99" y1="560.42" x2="268" y2="560.42"/></svg>