<svg id="Layer_1" data-name="Layer 1" xmlns="http://www.w3.org/2000/svg" xmlns:xlink="http://www.w3.org/1999/xlink" viewBox="0 0 1542 601.42"><defs><linearGradient id="Naamloos_verloop_3" x1="206.64" y1="-208.8" x2="205.63" y2="-208.01" gradientTransform="translate(-56154.16 21232.22) scale(276.75 100.74)" gradientUnits="userSpaceOnUse"><stop offset="0" stop-color="#9ef7fe"/><stop offset="0.88" stop-color="#76b6fb"/></linearGradient><linearGradient id="Naamloos_verloop_3-2" x1="168.26" y1="-211.7" x2="168.26" y2="-210.42" gradientTransform="translate(4991.87 374.24) rotate(-125.99) scale(14)" xlink:href="#Naamloos_verloop_3"/><linearGradient id="Naamloos_verloop_3-3" x1="169.28" y1="-211.9" x2="169.28" y2="-210.61" gradientTransform="translate(4954.87 339.24) rotate(-125.99) scale(14)" xlink:href="#Naamloos_verloop_3"/><linearGradient id="Naamloos_verloop_3-4" x1="160" y1="-218.38" x2="160" y2="-217.09" gradientTransform="translate(3490.21 184.41) rotate(-126.01) scale(10)" xlink:href="#Naamloos_verloop_3"/><linearGradient id="Naamloos_verloop_3-5" x1="156.65" y1="-218.59" x2="156.65" y2="-217.3" gradientTransform="translate(3553.21 283.41) rotate(-126.01) scale(10)" xlink:href="#Naamloos_verloop_3"/><linearGradient id="Naamloos_verloop_3-6" x1="183.93" y1="-215.32" x2="183.93" y2="-214.03" gradientTransform="translate(6732.54 620.51) rotate(-126.01) scale(21)" xlink:href="#Naamloos_verloop_3"/><linearGradient id="Naamloos_verloop_3-7" x1="102.71" y1="-230.56" x2="102.71" y2="-229.27" gradientTransform="translate(5614.53 3129.78) rotate(-81.01) scale(21)" xlink:href="#Naamloos_verloop_3"/></defs><path id="Path_85" data-name="Path 85" d="M922,156.68C985.2,179,1207.13,136,1177.08,208.75s-83.91,43.24-146.86,67.5S804.06,290.45,804.06,247,858.84,134.39,922,156.68Z" transform="translate(0 0)" style="fill:url(#Naamloos_verloop_3)"/><circle id="Ellipse_19" data-name="Ellipse 19" cx="1217.61" cy="203.58" r="9" style="fill:url(#Naamloos_verloop_3-2)"/><circle id="Ellipse_18" data-name="Ellipse 18" cx="1170.02" cy="158.56" r="9" style="fill:url(#Naamloos_verloop_3-3)"/><circle id="Ellipse_14" data-name="Ellipse 14" cx="787.93" cy="170.27" r="6.43" style="fill:url(#Naamloos_verloop_3-4)"/><circle id="Ellipse_15" data-name="Ellipse 15" cx="868.95" cy="297.6" r="6.43" style="fill:url(#Naamloos_verloop_3-5)"/><circle id="Ellipse_13" data-name="Ellipse 13" cx="815.34" cy="145.56" r="13.51" style="fill:url(#Naamloos_verloop_3-6)"/><circle id="Ellipse_16" data-name="Ellipse 16" cx="1178.03" cy="244.59" r="13.51" style="fill:url(#Naamloos_verloop_3-7)"/><path d="M863.07,2h383.08A21.85,21.85,0,0,1,1268,23.85h0V215.28" transform="translate(0 0)" style="fill:none;stroke:#000;stroke-linecap:round;stroke-miterlimit:10;stroke-width:4px"/><path d="M717.93,257.36V23.86A21.85,21.85,0,0,1,739.78,2h66.84" transform="translate(0 0)" style="fill:none;stroke:#000;stroke-linecap:round;stroke-miterlimit:10;stroke-width:4px"/><path d="M1268,249.26V400.33a21.85,21.85,0,0,1-21.85,21.85H739.78a21.85,21.85,0,0,1-21.85-21.85V289.69" transform="translate(0 0)" style="fill:none;stroke:#000;stroke-linecap:round;stroke-miterlimit:10;stroke-width:4px"/><path d="M1063.76,403H744.24a5.77,5.77,0,0,1-5.77-5.77h0V29.63a5.76,5.76,0,0,1,5.76-5.76H1241.7a5.76,5.76,0,0,1,5.76,5.76h0V76.86" transform="translate(0 0)" style="fill:none;stroke:#000;stroke-linecap:round;stroke-miterlimit:10;stroke-width:4px"/><path d="M1247.46,114.47V397.19a5.76,5.76,0,0,1-5.75,5.77H1088.36" transform="translate(0 0)" style="fill:none;stroke:#000;stroke-linecap:round;stroke-miterlimit:10;stroke-width:4px"/><path d="M557.17,368.59a70.79,70.79,0,1,1-10.55-9.66" transform="translate(0 0)" style="fill:none;stroke:#000;stroke-linecap:round;stroke-miterlimit:10;stroke-width:4px"/><line x1="482.41" y1="483.29" x2="482.41" y2="504.91" style="fill:none;stroke:#000;stroke-miterlimit:10;stroke-width:4px"/><line x1="521.74" y1="484.54" x2="521.74" y2="504.91" style="fill:none;stroke:#000;stroke-miterlimit:10;stroke-width:4px"/><rect x="459.85" y="505.27" width="83.51" height="15.91" rx="4.53" style="fill:none;stroke:#000;stroke-miterlimit:10;stroke-width:4px"/><path d="M543.36,415.8a40.41,40.41,0,1,1-21.16-35.55" transform="translate(0 0)" style="fill:none;stroke:#000;stroke-linecap:round;stroke-miterlimit:10;stroke-width:3px"/><path d="M533.29,389a18.17,18.17,0,0,1,7.42,11.56" transform="translate(0 0)" style="fill:none;stroke:#000;stroke-linecap:round;stroke-miterlimit:10;stroke-width:3px"/><circle cx="503.26" cy="415.47" r="16.9" transform="translate(12.54 845.68) rotate(-80.78)"/><path d="M529.32,349.45a26.52,26.52,0,0,1-1.93,7.83,10.87,10.87,0,0,1-10,6.34h-30.7s-7.11,0-9.15-4.84c-1-2.31-2.28-4.83-1.56-8" transform="translate(0 0)" style="fill:none;stroke:#000;stroke-linecap:round;stroke-miterlimit:10;stroke-width:3px"/><path d="M903,424.18s-1.21,51-62.18,96.09" transform="translate(0 0)" style="fill:none;stroke:#000;stroke-linecap:round;stroke-miterlimit:10;stroke-width:4px"/><path d="M1059,424.76s1.21,51,62.18,96.09" transform="translate(0 0)" style="fill:none;stroke:#000;stroke-linecap:round;stroke-miterlimit:10;stroke-width:4px"/><rect x="770.63" y="179.65" width="434.71" height="81.83" rx="2.67" style="fill:none;stroke:#000;stroke-miterlimit:10;stroke-width:4px"/><path d="M481.29,362.63" transform="translate(0 0)" style="fill:none;stroke:#000;stroke-miterlimit:10;stroke-width:4px"/><g style="isolation:isolate"><text transform="translate(822.58 233.81)" style="isolation:isolate;font-size:39px;font-family:SofiaPro-Medium, Sofia Pro;font-weight:500;letter-spacing:-0.010003505608974358em">N</text><text transform="translate(848.94 233.81)" style="isolation:isolate;font-size:39px;font-family:SofiaPro-Medium, Sofia Pro;font-weight:500">og i</text><text transform="translate(914.42 233.81)" style="isolation:isolate;font-size:39px;font-family:SofiaPro-Medium, Sofia Pro;font-weight:500;letter-spacing:-0.006998697916666667em">e</text><text transform="translate(936.03 233.81)" style="isolation:isolate;font-size:39px;font-family:SofiaPro-Medium, Sofia Pro;font-weight:500;letter-spacing:-0.0030048076923076925em">t</text><text transform="translate(948.74 233.81)" style="isolation:isolate;font-size:39px;font-family:SofiaPro-Medium, Sofia Pro;font-weight:500">s be</text><text transform="translate(1021.28 233.81)" style="isolation:isolate;font-size:39px;font-family:SofiaPro-Medium, Sofia Pro;font-weight:500;letter-spacing:-0.001001602564102564em">s</text><text transform="translate(1038.48 233.81)" style="isolation:isolate;font-size:39px;font-family:SofiaPro-Medium, Sofia Pro;font-weight:500;letter-spacing:-0.009001903044871794em">t</text><text transform="translate(1050.96 233.81)" style="isolation:isolate;font-size:39px;font-family:SofiaPro-Medium, Sofia Pro;font-weight:500">ellen?</text></g><line id="Line_1" data-name="Line 1" x1="183" y1="521.42" x2="1540" y2="521.42" style="fill:none;stroke:#000;stroke-linecap:round;stroke-width:4px"/><line id="Line_2" data-name="Line 2" x1="2" y1="521.42" x2="135" y2="521.42" style="fill:none;stroke:#000;stroke-linecap:round;stroke-width:4px"/><line id="Line_3" data-name="Line 3" x1="853" y1="560.42" x2="1202" y2="560.42" style="fill:none;stroke:#000;stroke-linecap:round;stroke-width:4px"/><line id="Line_5" data-name="Line 5" x1="1329" y1="599.42" x2="1412" y2="599.42" style="fill:none;stroke:#000;stroke-linecap:round;stroke-width:4px"/><line id="Line_4" data-name="Line 4" x1="99" y1="560.42" x2="268" y2="560.42" style="fill:none;stroke:#000;stroke-linecap:round;stroke-width:4px"/></svg>