<svg id="Layer_1" data-name="Layer 1" xmlns="http://www.w3.org/2000/svg" xmlns:xlink="http://www.w3.org/1999/xlink" viewBox="0 0 353.06 146.79"><defs><linearGradient id="lichtblauw" x1="-385.21" y1="-433.59" x2="-385.95" y2="-433" gradientTransform="translate(123732.44 48222.46) scale(320.47 111.14)" gradientUnits="userSpaceOnUse"><stop offset="0" stop-color="#9ef7fe"/><stop offset="0.5" stop-color="#93e5fc"/><stop offset="1" stop-color="#76b6fb"/></linearGradient><linearGradient id="lichtblauw-2" x1="-455.27" y1="-433.97" x2="-455.27" y2="-432.97" gradientTransform="translate(1182.7 -8717.32) rotate(-125.99) scale(14)" xlink:href="#lichtblauw"/><linearGradient id="lichtblauw-3" x1="-455.27" y1="-433.97" x2="-455.27" y2="-432.97" gradientTransform="translate(1508.48 -8678.37) rotate(-125.99) scale(14)" xlink:href="#lichtblauw"/><linearGradient id="lichtblauw-4" x1="-481.97" y1="-431.51" x2="-481.97" y2="-430.51" gradientTransform="translate(661.3 -6330.94) rotate(-126.01) scale(10)" xlink:href="#lichtblauw"/><linearGradient id="lichtblauw-5" x1="-481.97" y1="-431.51" x2="-481.97" y2="-430.51" gradientTransform="translate(701.17 -6304.88) rotate(-126.01) scale(10)" xlink:href="#lichtblauw"/><linearGradient id="lichtblauw-6" x1="-481.97" y1="-431.51" x2="-481.97" y2="-430.51" gradientTransform="translate(982.23 -6304.88) rotate(-126.01) scale(10)" xlink:href="#lichtblauw"/><linearGradient id="lichtblauw-7" x1="-432.43" y1="-436.03" x2="-432.43" y2="-435.03" gradientTransform="translate(2381.27 -12707.78) rotate(-126.01) scale(21)" xlink:href="#lichtblauw"/><linearGradient id="lichtblauw-8" x1="-432.43" y1="-436.03" x2="-432.43" y2="-435.03" gradientTransform="translate(2068.03 -12588.27) rotate(-126.01) scale(21)" xlink:href="#lichtblauw"/></defs><path id="Path_135" data-name="Path 135" d="M69.12,17.67c75,17.69,218.83-14.41,257.5,41.85s-53.86,55.8-102.08,65.24-66.19-13.82-146.35-8.88S-5.9,0,69.12,17.67Z" transform="translate(0 0)" style="fill:url(#lichtblauw)"/><circle id="Ellipse_35" data-name="Ellipse 35" cx="20.28" cy="7" r="7" style="fill:url(#lichtblauw-2)"/><circle id="Ellipse_36" data-name="Ellipse 36" cx="346.06" cy="45.95" r="7" style="fill:url(#lichtblauw-3)"/><circle id="Ellipse_38" data-name="Ellipse 38" cx="8.37" cy="102.54" r="5" style="fill:url(#lichtblauw-4)"/><circle id="Ellipse_39" data-name="Ellipse 39" cx="48.25" cy="128.61" r="5" style="fill:url(#lichtblauw-5)"/><circle id="Ellipse_40" data-name="Ellipse 40" cx="329.3" cy="128.61" r="5" style="fill:url(#lichtblauw-6)"/><circle id="Ellipse_37" data-name="Ellipse 37" cx="323.74" cy="16.78" r="10.5" style="fill:url(#lichtblauw-7)"/><circle id="Ellipse_34" data-name="Ellipse 34" cx="10.5" cy="136.29" r="10.5" style="fill:url(#lichtblauw-8)"/><g style="isolation:isolate"><text transform="translate(39.3 84.42)" style="isolation:isolate;font-size:45px;font-family:SofiaPro-Medium, Sofia Pro;font-weight:500">R</text><text transform="translate(67.2 84.42)" style="font-size:45px;font-family:SofiaPro-Medium, Sofia Pro;font-weight:500"> </text><text transform="translate(67.2 84.42)" style="isolation:isolate;font-size:45px;font-family:SofiaPro-Medium, Sofia Pro;font-weight:500">ijden maar!</text></g></svg>