<svg id="Layer_1" data-name="Layer 1" xmlns="http://www.w3.org/2000/svg" viewBox="0 0 366 586.71"><line x1="221.69" y1="73.21" x2="329.04" y2="311.07" style="fill:none;stroke:#000;stroke-miterlimit:10;stroke-width:4px"/><line x1="145.21" y1="292.03" x2="209" y2="352" style="fill:none;stroke:#000;stroke-linecap:round;stroke-miterlimit:10;stroke-width:4px"/><line x1="67.96" y1="219.4" x2="120.77" y2="269.05" style="fill:none;stroke:#000;stroke-linecap:round;stroke-miterlimit:10;stroke-width:4px"/><polyline points="195.01 497.46 188.24 504.24 188.24 567.47 221.69 583.53 221.69 517.38 251.03 488.03 302 488.03 330.98 517.02 330.98 582 364 566 364 503.61 318.69 458.31 318.69 403.24" style="fill:none;stroke:#000;stroke-linecap:round;stroke-miterlimit:10;stroke-width:4px"/><line x1="212.24" y1="480.23" x2="205.19" y2="487.28" style="fill:none;stroke:#000;stroke-linecap:round;stroke-miterlimit:10;stroke-width:4px"/><polyline points="232.84 403.24 232.84 459.63 228.37 464.1 221.69 470.78" style="fill:none;stroke:#000;stroke-miterlimit:10;stroke-width:4px"/><path d="M929.92,306.09a114,114,0,1,1-17.18-4.42" transform="translate(-776.91 -297.95)" style="fill:none;stroke:#000;stroke-linecap:round;stroke-miterlimit:10;stroke-width:4px"/><path d="M957.33,382.15a72.38,72.38,0,1,1-43.45-37" transform="translate(-776.91 -297.95)" style="fill:none;stroke:#000;stroke-linecap:round;stroke-miterlimit:10;stroke-width:4px"/><path d="M932.52,354.05a72.9,72.9,0,0,1,10.59,8.58" transform="translate(-776.91 -297.95)" style="fill:none;stroke:#000;stroke-linecap:round;stroke-miterlimit:10;stroke-width:4px"/><path d="M1106,690.88a67,67,0,1,1,13.92-43c0,.69,0,1.37,0,2.06a67.31,67.31,0,0,1-2.29,17.44" transform="translate(-776.91 -297.95)" style="fill:none;stroke:#000;stroke-linecap:round;stroke-miterlimit:10;stroke-width:4px"/><circle cx="276.88" cy="349.94" r="35.12" style="fill:none;stroke:#000;stroke-miterlimit:10;stroke-width:4px"/></svg>