<svg id="Layer_1" data-name="Layer 1" xmlns="http://www.w3.org/2000/svg" viewBox="0 0 258.3 189.73"><defs><style>.cls-1,.cls-2,.cls-3{fill:none;stroke:#000;stroke-miterlimit:10;}.cls-1,.cls-3{stroke-linecap:round;}.cls-1,.cls-2{stroke-width:4px;}.cls-3{stroke-width:3px;}</style></defs><path class="cls-1" d="M1029.12,470.93a70.79,70.79,0,1,1-10.54-9.66" transform="translate(-830.52 -445.22)"/><line class="cls-2" x1="123.85" y1="140.4" x2="123.85" y2="162.02"/><line class="cls-2" x1="163.18" y1="141.65" x2="163.18" y2="162.02"/><rect class="cls-2" x="101.28" y="162.39" width="83.51" height="15.91" rx="4.53"/><path class="cls-3" d="M1015.31,518.14a40.41,40.41,0,1,1-21.16-35.55" transform="translate(-830.52 -445.22)"/><path class="cls-3" d="M1005.24,491.34a18.17,18.17,0,0,1,7.42,11.56" transform="translate(-830.52 -445.22)"/><circle cx="144.69" cy="72.58" r="16.9"/><path class="cls-3" d="M1001.27,451.79a26.26,26.26,0,0,1-1.93,7.83,10.86,10.86,0,0,1-10,6.34h-30.7s-7.11,0-9.15-4.84c-1-2.31-2.28-4.83-1.56-8" transform="translate(-830.52 -445.22)"/><line class="cls-3" x1="1.5" y1="179.62" x2="6.21" y2="179.62"/><line class="cls-3" x1="17.35" y1="179.62" x2="39.58" y2="179.62"/><line class="cls-3" x1="49.47" y1="179.62" x2="214.39" y2="179.62"/><line class="cls-3" x1="238.5" y1="179.62" x2="256.8" y2="179.62"/><line class="cls-3" x1="253.08" y1="188.23" x2="199.72" y2="188.23"/><line class="cls-3" x1="181.39" y1="188.23" x2="168.35" y2="188.23"/><line class="cls-3" x1="69.5" y1="188.23" x2="34.35" y2="188.23"/><path class="cls-2" d="M953.24,465" transform="translate(-830.52 -445.22)"/></svg>